<svg width="80" height="80" viewBox="0 0 80 80" fill="none" xmlns="http://www.w3.org/2000/svg">
<path d="M40 17.5C40 16.1193 38.8807 15 37.5 15C36.1193 15 35 16.1193 35 17.5V45C35 45.8971 35.4807 46.7255 36.2597 47.1706L53.7597 57.1706C54.9584 57.8556 56.4856 57.4391 57.1706 56.2403C57.8556 55.0416 57.4391 53.5144 56.2403 52.8294L40 43.5492V17.5Z" fill="#F6E8E8"/>
<path d="M40 80C62.0914 80 80 62.0914 80 40C80 17.9086 62.0914 0 40 0C17.9086 0 0 17.9086 0 40C0 62.0914 17.9086 80 40 80ZM75 40C75 59.33 59.33 75 40 75C20.67 75 5 59.33 5 40C5 20.67 20.67 5 40 5C59.33 5 75 20.67 75 40Z" fill="#F6E8E8"/>
</svg>
