<svg width="143" height="48" viewBox="0 0 143 48" fill="none" xmlns="http://www.w3.org/2000/svg">
<g clip-path="url(#clip0_75_309)">
<g filter="url(#filter0_d_75_309)">
<path d="M22.6607 2.33643C28.8709 2.33643 34.5525 4.93246 38.6486 8.99292L33.4294 14.3847C30.6547 11.589 26.8228 9.85827 22.6607 9.85827C14.2703 9.85827 7.53153 16.7145 7.53153 25.1682C7.53153 33.5554 14.2703 40.4782 22.6607 40.4782C26.8228 40.4782 30.6547 38.6809 33.4294 35.9517L38.6486 41.2769C34.5525 45.4705 28.8709 48 22.6607 48C10.1081 48 0 37.749 0 25.1682C0 12.5209 10.1081 2.33643 22.6607 2.33643ZM22.6607 19.7099C25.6336 19.7099 28.012 22.1728 28.012 25.1682C28.012 28.1636 25.6336 30.56 22.6607 30.56C19.6216 30.56 17.2432 28.1636 17.2432 25.1682C17.2432 22.1728 19.6216 19.7099 22.6607 19.7099Z" fill="#FDD775"/>
</g>
<g filter="url(#filter1_d_75_309)">
<path d="M56.5016 27.4322C55.4492 28.3748 54.0794 28.8629 52.4924 28.8629C49.1849 28.8629 46.3784 26.3887 46.3784 22.8037C46.3784 19.2186 49.1849 16.7444 52.4924 16.7444C54.0627 16.7444 55.4158 17.2494 56.4348 18.1414L54.8144 19.976C54.2298 19.5721 53.4446 19.2859 52.6595 19.2859C50.6048 19.2859 49.1849 20.7671 49.1849 22.8037C49.1849 24.8402 50.6048 26.3214 52.6595 26.3214C53.478 26.3214 54.3133 26.0016 54.898 25.5303L56.5016 27.4322ZM62.2482 19.7909C64.2193 19.7909 66.8253 21.2889 66.8253 24.3521C66.8253 27.4322 64.2193 28.8629 62.2482 28.8629C60.277 28.8629 57.671 27.4322 57.671 24.3521C57.671 21.2889 60.277 19.7909 62.2482 19.7909ZM62.2482 22.1304C61.2459 22.1304 60.2268 22.9046 60.2268 24.3521C60.2268 25.7491 61.2459 26.5233 62.2482 26.5233C63.2505 26.5233 64.2862 25.7491 64.2862 24.3521C64.2862 22.9046 63.2505 22.1304 62.2482 22.1304ZM72.5718 19.7909C74.543 19.7909 77.149 21.2889 77.149 24.3521C77.149 27.4322 74.543 28.8629 72.5718 28.8629C70.6006 28.8629 67.9947 27.4322 67.9947 24.3521C67.9947 21.2889 70.6006 19.7909 72.5718 19.7909ZM72.5718 22.1304C71.5695 22.1304 70.5505 22.9046 70.5505 24.3521C70.5505 25.7491 71.5695 26.5233 72.5718 26.5233C73.5741 26.5233 74.6098 25.7491 74.6098 24.3521C74.6098 22.9046 73.5741 22.1304 72.5718 22.1304ZM81.225 16.7949V28.6945H78.5856V16.7949H81.225ZM95.608 19.3869H90.8638V21.6255H94.756V23.9313H90.8638V28.6945H88.0908V16.9128H95.608V19.3869ZM99.684 16.7949V19.0335H97.0446V16.7949H99.684ZM99.684 19.9424V28.6945H97.0446V19.9424H99.684ZM105.614 26.4728C106.082 26.4728 106.416 26.4055 106.784 26.3045V28.5094C106.416 28.6777 105.815 28.7955 104.929 28.7955C103.476 28.7955 102.257 28.3074 102.257 25.6145V22.1304H101.037V19.9424H102.257V17.889H104.896V19.9424H106.75V22.1304H104.896V25.6145C104.896 26.0016 104.996 26.4728 105.614 26.4728ZM113.516 19.8077C115.136 19.8077 116.79 20.9017 116.79 23.6789V28.6945H114.151V23.864C114.151 22.5344 113.7 22.1136 112.864 22.1136C111.678 22.1136 110.993 23.2749 110.826 23.7799V28.6945H108.187V19.9424H110.826V21.4572C110.993 21.0364 111.879 19.8077 113.516 19.8077ZM122.703 19.7909C124.675 19.7909 127.431 21.2888 126.88 25.2442H120.816C121.117 26.153 121.902 26.6243 122.954 26.6243C124.023 26.6243 124.357 26.3887 124.959 26.1362L126.412 27.55C125.644 28.3074 124.608 28.8629 122.854 28.8629C120.699 28.8629 118.126 27.3649 118.126 24.3521C118.126 21.2889 120.732 19.7909 122.703 19.7909ZM122.703 22.0631C121.952 22.0631 121.183 22.5007 120.849 23.3759H124.541C124.274 22.5007 123.455 22.0631 122.703 22.0631ZM132.509 22.7027C132.275 22.0967 131.925 21.8948 131.54 21.8948C131.19 21.8948 130.839 22.0967 130.839 22.4334C130.839 22.7532 131.039 22.9383 131.423 23.073L132.526 23.4601C133.762 23.9145 135.015 24.3689 135.015 26.1194C135.015 27.8867 133.261 28.8965 131.457 28.8965C129.837 28.8965 128.316 27.9371 127.949 26.4055L130.02 25.7491C130.237 26.2372 130.622 26.7926 131.457 26.7926C132.025 26.7926 132.392 26.4223 132.392 26.0857C132.392 25.9174 132.259 25.6986 131.841 25.5303L130.822 25.16C129.085 24.5204 128.266 23.6284 128.266 22.3829C128.266 20.7503 129.77 19.7909 131.423 19.7909C133.111 19.7909 134.23 20.7166 134.731 22.1136L132.509 22.7027ZM140.494 22.7027C140.26 22.0967 139.91 21.8948 139.525 21.8948C139.175 21.8948 138.824 22.0967 138.824 22.4334C138.824 22.7532 139.024 22.9383 139.408 23.073L140.511 23.4601C141.747 23.9145 143 24.3689 143 26.1194C143 27.8867 141.246 28.8965 139.442 28.8965C137.821 28.8965 136.301 27.9371 135.934 26.4055L138.005 25.7491C138.222 26.2372 138.607 26.7926 139.442 26.7926C140.01 26.7926 140.377 26.4223 140.377 26.0857C140.377 25.9174 140.244 25.6986 139.826 25.5303L138.807 25.16C137.07 24.5204 136.251 23.6284 136.251 22.3829C136.251 20.7503 137.755 19.7909 139.408 19.7909C141.096 19.7909 142.215 20.7166 142.716 22.1136L140.494 22.7027Z" fill="#FDD775"/>
</g>
</g>
<defs>
<filter id="filter0_d_75_309" x="-10" y="1.33643" width="58.6487" height="65.6636" filterUnits="userSpaceOnUse" color-interpolation-filters="sRGB">
<feFlood flood-opacity="0" result="BackgroundImageFix"/>
<feColorMatrix in="SourceAlpha" type="matrix" values="0 0 0 0 0 0 0 0 0 0 0 0 0 0 0 0 0 0 127 0" result="hardAlpha"/>
<feOffset dy="9"/>
<feGaussianBlur stdDeviation="5"/>
<feComposite in2="hardAlpha" operator="out"/>
<feColorMatrix type="matrix" values="0 0 0 0 0 0 0 0 0 0 0 0 0 0 0 0 0 0 0.25 0"/>
<feBlend mode="normal" in2="BackgroundImageFix" result="effect1_dropShadow_75_309"/>
<feBlend mode="normal" in="SourceGraphic" in2="effect1_dropShadow_75_309" result="shape"/>
</filter>
<filter id="filter1_d_75_309" x="36.3784" y="15.7444" width="116.622" height="32.1521" filterUnits="userSpaceOnUse" color-interpolation-filters="sRGB">
<feFlood flood-opacity="0" result="BackgroundImageFix"/>
<feColorMatrix in="SourceAlpha" type="matrix" values="0 0 0 0 0 0 0 0 0 0 0 0 0 0 0 0 0 0 127 0" result="hardAlpha"/>
<feOffset dy="9"/>
<feGaussianBlur stdDeviation="5"/>
<feComposite in2="hardAlpha" operator="out"/>
<feColorMatrix type="matrix" values="0 0 0 0 0 0 0 0 0 0 0 0 0 0 0 0 0 0 0.25 0"/>
<feBlend mode="normal" in2="BackgroundImageFix" result="effect1_dropShadow_75_309"/>
<feBlend mode="normal" in="SourceGraphic" in2="effect1_dropShadow_75_309" result="shape"/>
</filter>
<clipPath id="clip0_75_309">
<rect width="143" height="48" fill="white"/>
</clipPath>
</defs>
</svg>
