<svg width="80" height="80" viewBox="0 0 80 80" fill="none" xmlns="http://www.w3.org/2000/svg">
<path fill-rule="evenodd" clip-rule="evenodd" d="M55 75C66.0457 75 75 66.0457 75 55C75 43.9543 66.0457 35 55 35C43.9543 35 35 43.9543 35 55C35 66.0457 43.9543 75 55 75ZM80 55C80 68.8071 68.8071 80 55 80C41.1929 80 30 68.8071 30 55C30 41.1929 41.1929 30 55 30C68.8071 30 80 41.1929 80 55Z" fill="#F6E8E8"/>
<path d="M47.1875 59.7219C47.4259 62.7017 49.7784 65.0245 54.0065 65.2995V67.5H55.8822V65.2842C60.2534 64.9786 62.8125 62.6406 62.8125 59.2482C62.8125 56.1614 60.8574 54.5721 57.3604 53.7469L55.8822 53.3955V47.4053C57.7578 47.6192 58.95 48.643 59.2361 50.0642H62.5264C62.288 47.1913 59.8242 44.945 55.8822 44.7005V42.5H54.0065V44.7463C50.2712 45.1131 47.7279 47.3594 47.7279 50.5379C47.7279 53.3496 49.6195 55.1375 52.7667 55.871L54.0065 56.1766V62.5336C52.0832 62.2433 50.8116 61.1889 50.5255 59.7219H47.1875ZM53.9907 52.9523C52.1468 52.5244 51.1454 51.6534 51.1454 50.3392C51.1454 48.8722 52.2263 47.772 54.0065 47.4511V52.9523H53.9907ZM56.1524 56.6809C58.3936 57.2005 59.4268 58.041 59.4268 59.5232C59.4268 61.2194 58.1393 62.3808 55.8822 62.5947V56.6198L56.1524 56.6809Z" fill="#F6E8E8"/>
<path d="M5 0C2.23858 0 0 2.23858 0 5V45C0 47.7614 2.23858 50 5 50H25.4148C25.7035 48.2792 26.1387 46.6082 26.7071 45H15C15 39.4772 10.5228 35 5 35V15C10.5228 15 15 10.5228 15 5H65C65 10.5228 69.4771 15 75 15V32.6389C76.9005 34.34 78.5829 36.2797 80 38.411V5C80 2.23858 77.7614 0 75 0H5Z" fill="#F6E8E8"/>
<path d="M49.9915 25.4162C49.9971 25.2782 50 25.1394 50 25C50 19.4772 45.5228 15 40 15C34.4772 15 30 19.4772 30 25C30 28.4225 31.7194 31.4435 34.3415 33.2462C38.5743 29.2252 43.9795 26.4266 49.9915 25.4162Z" fill="#F6E8E8"/>
</svg>
