<svg width="80" height="60" viewBox="0 0 80 60" fill="none" xmlns="http://www.w3.org/2000/svg">
<path d="M35 60C35 60 30 60 30 55C30 50 35 35 55 35C75 35 80 50 80 55C80 60 75 60 75 60H35Z" fill="#F6E8E8"/>
<path d="M55 30C63.2843 30 70 23.2843 70 15C70 6.71573 63.2843 0 55 0C46.7157 0 40 6.71573 40 15C40 23.2843 46.7157 30 55 30Z" fill="#F6E8E8"/>
<path d="M26.0818 60C25.3778 58.5796 25 56.8957 25 55C25 48.2227 28.3953 41.2528 34.6796 36.3998C31.9305 35.5205 28.7255 35 25 35C5 35 0 50 0 55C0 60 5 60 5 60H26.0818Z" fill="#F6E8E8"/>
<path d="M22.5 30C29.4036 30 35 24.4036 35 17.5C35 10.5964 29.4036 5 22.5 5C15.5964 5 10 10.5964 10 17.5C10 24.4036 15.5964 30 22.5 30Z" fill="#F6E8E8"/>
</svg>
